<?xml version="1.0" standalone="no"?>
<!DOCTYPE svg PUBLIC "-//W3C//DTD SVG 20010904//EN"
 "http://www.w3.org/TR/2001/REC-SVG-20010904/DTD/svg10.dtd">
<svg version="1.0" xmlns="http://www.w3.org/2000/svg"
 width="300.000000pt" height="300.000000pt" viewBox="0 0 300.000000 300.000000"
 preserveAspectRatio="xMidYMid meet">

<g transform="translate(0.000000,300.000000) scale(0.100000,-0.100000)"
fill="#000000" stroke="none">
<path d="M1410 2993 c-391 -38 -680 -163 -937 -406 -327 -310 -504 -768 -463
-1204 35 -380 171 -676 429 -933 179 -178 361 -291 600 -370 165 -55 276 -73
461 -73 401 0 743 136 1029 408 243 233 390 501 447 816 20 113 23 366 5 484
-28 182 -71 316 -153 476 -201 393 -588 685 -1023 773 -137 28 -294 39 -395
29z m385 -68 c121 -27 275 -84 385 -141 379 -197 660 -573 751 -1007 44 -206
23 -522 -50 -743 -96 -293 -303 -562 -566 -737 -157 -104 -297 -165 -485 -215
-98 -25 -119 -27 -310 -27 -276 0 -423 30 -639 131 -412 192 -707 567 -802
1019 -29 137 -36 394 -15 526 48 288 185 562 385 772 230 239 495 376 838 432
114 19 408 13 508 -10z"/>
<path d="M1580 2870 c-50 -50 -32 -123 34 -128 37 -3 66 10 66 31 0 5 -8 3
-18 -6 -55 -50 -112 33 -64 93 22 27 54 21 70 -13 11 -22 11 -22 11 4 1 41
-64 54 -99 19z"/>
<path d="M1240 2803 c-7 -38 -18 -71 -24 -75 -6 -5 -2 -8 11 -8 16 0 20 5 16
20 -4 14 1 22 18 29 27 10 53 -5 45 -26 -6 -14 3 -16 27 -7 12 4 7 18 -25 70
-22 35 -44 64 -48 64 -4 0 -13 -30 -20 -67z m40 -5 c0 -5 -7 -8 -15 -8 -15 0
-20 21 -8 33 7 7 23 -11 23 -25z"/>
<path d="M1754 2843 c-9 -15 -29 -47 -45 -70 -27 -40 -27 -43 -9 -43 11 0 19
3 19 8 -4 25 3 33 29 30 21 -2 27 -8 27 -28 0 -19 6 -26 24 -28 20 -3 23 -1
16 15 -4 10 -13 44 -20 76 -7 32 -15 60 -18 63 -3 3 -13 -7 -23 -23z m12 -60
c-2 -3 -9 -2 -15 2 -8 4 -7 13 1 28 l13 22 3 -23 c2 -13 1 -26 -2 -29z"/>
<path d="M1158 2853 c-19 -5 -24 -19 -9 -25 6 -1 16 -24 23 -51 11 -42 10 -49
-5 -64 -15 -16 -18 -16 -33 -2 -18 19 -36 86 -28 110 3 13 -1 15 -21 11 -23
-4 -36 -22 -16 -22 5 0 12 -19 16 -42 10 -62 22 -78 54 -78 40 0 55 22 46 67
-3 21 -7 53 -7 71 -1 17 -2 31 -2 31 -1 -1 -9 -3 -18 -6z"/>
<path d="M1873 2804 c-1 -19 -11 -50 -22 -69 -17 -29 -17 -34 -4 -39 24 -10
28 -7 29 20 3 50 30 43 40 -11 3 -18 12 -36 20 -39 17 -6 17 -2 4 43 -8 28 -6
36 11 50 25 20 18 41 -20 64 -44 26 -56 22 -58 -19z m61 1 c7 -20 -3 -45 -19
-45 -20 0 -24 12 -14 38 10 25 24 29 33 7z"/>
<path d="M952 2777 c-30 -32 -29 -81 3 -112 13 -14 34 -25 45 -25 22 0 76 47
66 58 -4 3 -13 -4 -22 -16 -20 -29 -48 -28 -73 4 -35 45 -23 94 24 94 12 0 27
-6 34 -12 11 -11 13 -10 7 5 -3 10 -6 21 -6 23 0 15 -60 0 -78 -19z"/>
<path d="M1485 2790 c-4 -6 6 -10 22 -10 22 0 25 2 13 10 -19 12 -27 12 -35 0z"/>
<path d="M1999 2761 c-29 -23 -33 -91 -7 -118 44 -43 122 -3 122 63 0 64 -65
95 -115 55z m85 -7 c20 -19 20 -37 1 -74 -28 -54 -95 -49 -95 7 0 24 49 83 69
83 5 0 17 -7 25 -16z"/>
<path d="M1497 2748 c-4 -10 -9 -25 -12 -33 -3 -10 -18 -15 -48 -15 -118 0
-339 -56 -474 -121 -265 -126 -518 -418 -608 -700 -78 -248 -75 -558 10 -783
185 -491 625 -796 1151 -796 275 0 520 87 737 261 204 165 351 390 417 639 32
120 39 359 15 502 -54 331 -234 610 -509 792 -191 126 -344 179 -618 211 -42
5 -47 9 -50 33 -3 22 -6 24 -11 10z m65 -70 c22 -11 51 -65 44 -81 -2 -7 -5
-4 -5 6 -1 18 -21 25 -21 7 0 -5 -7 -10 -16 -10 -10 0 -14 6 -10 15 3 9 0 15
-9 15 -8 0 -15 -4 -15 -10 0 -5 -5 -10 -11 -10 -5 0 -9 8 -8 18 3 31 -1 43
-11 37 -5 -3 -10 -17 -10 -31 0 -13 -4 -24 -10 -24 -5 0 -10 5 -10 10 0 6 -4
10 -10 10 -5 0 -10 -7 -10 -15 0 -17 -16 -20 -25 -5 -4 6 -11 8 -16 4 -5 -3
-7 -10 -4 -15 4 -5 1 -9 -4 -9 -14 0 -14 6 4 45 28 57 94 76 157 43z m-162
-24 c0 -5 -19 -45 -25 -52 -5 -6 -55 30 -55 39 0 4 15 10 33 12 17 2 35 5 40
5 4 1 7 -1 7 -4z m261 -4 c27 0 24 -16 -6 -36 -30 -19 -31 -19 -41 20 -6 25
-5 28 10 23 10 -4 26 -7 37 -7z m-381 -18 c0 -5 -11 -19 -25 -32 -27 -25 -21
-45 13 -45 10 0 16 -7 14 -17 -5 -29 36 -33 64 -7 l25 23 -1 -39 c-1 -22 5
-61 13 -86 16 -50 10 -69 -25 -69 -9 0 -21 -7 -26 -16 -6 -11 -11 -13 -16 -5
-9 15 -49 14 -64 -1 -7 -7 -12 -22 -12 -34 0 -13 -4 -26 -10 -29 -15 -9 -12
-51 4 -64 22 -18 104 -4 147 25 19 14 46 23 60 22 16 -2 24 2 24 12 0 22 -42
24 -72 5 -19 -13 -24 -13 -21 -3 8 24 81 56 130 57 58 1 127 -32 128 -62 0 -4
-11 0 -24 9 -26 16 -72 16 -69 -1 1 -5 15 -13 30 -16 15 -3 44 -15 63 -26 19
-12 56 -24 81 -27 37 -6 48 -3 63 13 18 20 15 61 -5 61 -6 0 -8 9 -4 19 6 21
-18 51 -41 51 -9 0 -24 -5 -35 -10 -15 -8 -19 -7 -19 5 0 9 -9 15 -25 15 -33
0 -39 18 -24 71 6 24 11 62 10 84 l-2 39 25 -23 c29 -28 60 -24 64 7 2 14 9
22 17 19 29 -12 34 16 9 46 -14 16 -23 31 -21 33 1 2 31 -3 65 -11 339 -79
660 -358 792 -688 107 -269 111 -582 10 -845 -38 -98 -90 -192 -106 -192 -9 0
-49 33 -89 73 -54 54 -77 86 -91 125 -16 45 -22 52 -46 52 -23 0 -28 -6 -43
-52 -29 -89 -38 -90 -75 -13 -19 40 -33 85 -33 112 -2 43 0 45 43 70 77 43 95
68 68 91 -12 9 -45 16 -128 27 -32 5 -130 -60 -130 -86 0 -34 19 -69 39 -69
10 0 21 -6 24 -14 14 -36 -206 -516 -237 -516 -5 0 -6 3 -3 6 3 4 0 16 -8 28
-8 11 -15 35 -15 53 0 26 -6 36 -31 48 -22 12 -29 21 -24 33 3 9 9 30 12 45 4
21 10 26 22 21 9 -3 43 -8 77 -11 49 -3 65 0 84 15 25 21 20 42 -10 42 -11 0
-30 5 -43 11 -17 8 -37 8 -68 0 l-44 -10 40 2 c51 2 125 -12 125 -24 0 -17
-41 -30 -78 -24 -20 3 -52 8 -69 11 -18 3 -33 10 -33 17 -1 19 -47 48 -88 54
-48 8 -62 23 -63 70 -1 21 -3 30 -6 21 -3 -14 -14 -18 -46 -17 -28 1 -34 3
-17 6 29 6 50 21 50 36 0 5 -9 2 -19 -7 -22 -20 -41 -14 -41 13 0 25 -11 33
-26 20 -14 -11 -50 -9 -89 5 l-20 8 20 -17 c14 -12 32 -15 63 -12 36 4 42 2
42 -14 0 -15 -5 -18 -23 -14 -16 4 -29 0 -41 -14 l-19 -21 -21 24 c-22 24 -80
49 -90 39 -3 -4 -6 -1 -6 6 0 7 -4 9 -10 6 -5 -3 -10 -1 -10 6 0 10 -3 10 -11
2 -6 -6 -17 -9 -24 -7 -7 3 -28 -10 -48 -28 -28 -27 -35 -41 -35 -71 0 -46 11
-54 38 -25 l20 22 21 -21 c12 -12 18 -26 15 -32 -11 -18 -26 -13 -26 9 0 21
-14 27 -24 11 -9 -14 50 -71 73 -71 12 0 24 7 27 15 10 25 21 8 16 -24 -3 -23
-10 -31 -31 -33 -24 -3 -26 -7 -29 -59 -3 -60 13 -92 54 -103 30 -9 39 35 12
58 -29 25 -23 46 15 46 l32 1 -40 14 c-22 8 -41 15 -42 15 -9 0 -1 -78 9 -88
6 -6 9 -15 5 -19 -14 -13 -28 14 -34 65 l-6 52 36 0 c35 0 36 0 30 35 -4 26
-2 36 11 41 9 3 16 12 16 19 0 8 10 15 23 17 12 2 21 9 19 16 -3 18 55 15 62
-3 3 -9 3 -42 0 -74 -6 -57 -6 -58 20 -65 14 -3 26 -11 26 -18 0 -7 -20 -9
-62 -5 -39 3 -56 2 -47 -4 8 -5 32 -9 54 -9 22 0 47 -5 55 -11 13 -9 12 -10
-2 -5 -10 3 -18 1 -18 -4 0 -11 30 -13 54 -4 9 3 16 14 16 24 0 28 49 36 67
10 8 -11 37 -32 64 -45 45 -23 49 -28 49 -60 0 -29 5 -37 25 -45 14 -5 25 -15
25 -21 0 -18 -78 -111 -118 -142 -20 -15 -53 -32 -73 -38 -51 -16 -86 3 -198
108 -161 150 -286 330 -406 585 l-60 128 -43 0 c-40 0 -43 -2 -59 -42 -60
-152 -188 -368 -247 -418 -16 -12 -20 -11 -37 10 -26 34 -93 163 -119 230 -43
108 -61 202 -67 340 -22 561 315 1025 857 1180 77 22 80 22 80 12z m60 -27
c34 -36 21 -39 -20 -4 -22 18 -29 29 -19 29 8 0 26 -11 39 -25z m357 8 c-8
-10 -17 -22 -19 -28 -4 -12 -38 -18 -38 -6 0 12 49 51 63 51 6 0 3 -8 -6 -17z
m-383 -43 c4 0 4 6 0 13 -5 9 -4 9 6 0 16 -14 24 -53 12 -53 -11 0 -62 54 -62
65 0 4 8 1 18 -8 10 -10 22 -17 26 -17z m417 12 c-14 -26 -50 -56 -58 -49 -7
8 45 67 59 67 5 0 4 -8 -1 -18z m-148 -13 c34 -9 37 -13 37 -44 0 -25 -4 -35
-16 -35 -8 0 -12 5 -9 10 4 7 -2 9 -19 4 -21 -5 -26 -3 -26 12 -1 18 -1 18
-15 0 -12 -16 -15 -17 -20 -4 -3 8 -5 21 -3 28 2 7 -3 15 -9 17 -9 3 -13 -6
-13 -26 0 -17 -4 -31 -10 -31 -5 0 -10 7 -10 15 0 8 -4 15 -10 15 -5 0 -10 -7
-10 -16 0 -11 -6 -14 -20 -9 -11 4 -20 2 -20 -4 0 -21 -20 -10 -26 14 -8 31 9
52 44 58 54 8 118 7 155 -4z m14 -106 c16 -6 17 -49 2 -59 -6 -3 -14 -1 -18 5
-4 6 -15 9 -24 5 -10 -4 -17 -1 -17 6 0 10 -3 10 -15 0 -13 -11 -15 -8 -15 14
0 16 -4 25 -10 21 -5 -3 -10 -16 -10 -28 0 -18 -2 -19 -10 -7 -8 13 -11 13
-19 1 -5 -7 -14 -10 -20 -7 -6 4 -11 2 -11 -3 0 -6 -5 -11 -10 -11 -13 0 -36
48 -27 57 20 19 157 24 204 6z m-30 -81 c6 -4 -24 -7 -67 -7 -44 0 -74 3 -67
7 15 10 118 10 134 0z m-127 -47 c-7 -8 -25 -15 -41 -15 -16 0 -29 -5 -29 -12
0 -7 -7 -2 -16 10 -21 31 -13 37 31 21 33 -12 38 -12 47 4 5 10 12 16 15 13 3
-3 0 -12 -7 -21z m136 -2 c-7 -7 -26 7 -26 19 0 6 6 6 15 -2 9 -7 13 -15 11
-17z m84 10 c-1 -5 -7 -19 -15 -33 -11 -19 -14 -21 -15 -7 0 9 -8 17 -17 17
-15 0 -14 2 3 15 20 15 44 20 44 8z m-363 -24 c6 -6 9 -18 6 -25 -3 -8 2 -17
11 -20 9 -3 16 -15 16 -25 0 -23 -18 -25 -26 -4 -8 21 -21 19 -27 -5 -6 -24
-25 -26 -34 -4 -5 15 4 26 32 38 6 3 4 9 -4 14 -8 6 -11 17 -8 26 7 19 19 20
34 5z m438 -22 c0 -14 8 -32 18 -40 17 -12 17 -14 3 -26 -17 -14 -36 -7 -36
15 0 19 -16 18 -24 -1 -3 -8 -10 -15 -16 -15 -16 0 -12 37 5 44 8 3 15 14 15
24 0 10 3 22 7 26 13 13 28 -1 28 -27z m-288 -23 c-3 -3 -12 -4 -19 -1 -8 3
-5 6 6 6 11 1 17 -2 13 -5z m633 -908 c0 -2 -9 -6 -20 -9 -11 -3 -20 -1 -20 4
0 5 9 9 20 9 11 0 20 -2 20 -4z m103 -5 c37 -1 38 -43 2 -59 -34 -15 -34 -15
-28 8 4 14 -4 24 -28 39 l-33 20 30 -3 c16 -2 41 -4 57 -5z m-53 -21 c18 0 17
-29 -2 -47 -19 -16 -21 -16 -15 -1 3 10 0 24 -8 32 -20 19 -19 30 1 22 9 -3
19 -6 24 -6z m-31 -26 c13 -12 -33 -38 -69 -38 -22 -1 -40 -1 -40 0 0 6 39 42
50 47 14 5 50 -1 59 -9z m-1130 -160 c193 -396 454 -676 706 -755 41 -13 75
-27 75 -30 0 -12 -54 -19 -186 -26 -269 -12 -522 61 -741 216 -75 53 -189 161
-237 224 l-28 37 39 43 c74 80 174 250 223 377 19 49 29 60 55 60 19 0 33 -22
94 -146z m1126 116 c-3 -5 -12 -10 -18 -10 -7 0 -6 4 3 10 19 12 23 12 15 0z
m-65 -10 c0 -5 -4 -10 -10 -10 -5 0 -10 5 -10 10 0 6 5 10 10 10 6 0 10 -4 10
-10z m54 -45 c-4 -8 -15 -15 -25 -15 -10 0 -19 7 -19 15 0 9 9 15 25 15 18 0
23 -4 19 -15z m25 -110 c49 -122 109 -213 210 -318 l56 -59 -73 -69 c-120
-113 -285 -213 -435 -263 -56 -19 -95 -13 -218 35 -72 28 -100 49 -65 49 28 0
132 80 172 132 80 104 175 283 250 471 48 121 63 124 103 22z m183 -34 c20
-42 49 -79 104 -130 86 -81 86 -80 19 -158 l-30 -35 -60 64 c-33 35 -77 89
-98 119 l-38 55 24 55 c14 30 27 62 30 72 10 28 21 20 49 -42z m-949 22 c20
-8 37 -21 37 -28 0 -20 -52 -57 -72 -52 -9 3 -19 0 -22 -7 -3 -6 -4 -2 -1 10
3 13 -1 27 -12 35 -15 13 -16 12 -11 -8 9 -34 -13 -28 -45 12 l-27 34 27 15
c30 17 63 14 126 -11z m113 2 c-4 -10 1 -15 14 -15 22 0 18 -25 -6 -34 -36
-14 -57 20 -31 49 16 19 31 19 23 0z m104 -42 c-1 -37 -96 -145 -106 -120 -3
10 3 33 15 53 12 19 19 40 16 45 -12 19 16 49 45 49 26 0 30 -4 30 -27z m-370
13 c0 -3 -4 -8 -10 -11 -5 -3 -10 -1 -10 4 0 6 5 11 10 11 6 0 10 -2 10 -4z
m469 -67 c37 -13 41 -29 7 -29 -33 0 -76 17 -76 30 0 13 29 13 69 -1z m-392
-26 c3 -9 -8 -10 -35 -4 -2 1 0 6 3 12 8 12 27 7 32 -8z m366 -28 c10 -4 21
-5 24 -1 3 3 13 1 20 -6 11 -9 17 -9 24 3 13 21 12 -4 -2 -52 -13 -43 -1 -69
32 -69 15 0 19 -8 21 -40 0 -22 1 -45 2 -52 1 -6 -5 -13 -11 -15 -9 -3 -13 8
-13 35 0 43 -11 57 -53 67 -15 4 -38 21 -52 37 -22 26 -30 29 -63 25 -20 -3
-29 -3 -20 -1 10 3 19 20 23 43 6 39 24 46 68 26z m-125 -52 c5 -16 13 -36 17
-45 4 -10 3 -18 -2 -18 -9 0 -43 63 -43 80 0 21 18 9 28 -17z"/>
<path d="M2043 2391 c-6 -22 -30 -24 -25 -2 1 7 -2 10 -8 6 -8 -5 -8 -11 -1
-19 6 -7 8 -16 4 -19 -3 -4 0 -14 8 -24 12 -15 12 -16 -4 -10 -10 4 -27 1 -37
-5 -17 -11 -26 -7 -70 37 -27 27 -50 44 -50 37 0 -7 -7 -12 -16 -12 -8 0 -13
-4 -9 -9 3 -5 1 -12 -4 -15 -16 -10 0 -46 21 -46 10 0 39 -21 63 -46 l44 -45
-36 -16 c-33 -13 -40 -13 -70 1 -47 22 -51 21 -50 -19 1 -19 5 -35 9 -35 4 0
8 -7 8 -15 0 -19 7 -19 58 -1 41 15 92 16 122 3 8 -4 32 -13 54 -20 l38 -13
-27 -18 c-24 -16 -28 -16 -44 -2 -10 9 -25 16 -33 16 -18 0 -31 -26 -22 -42
10 -16 96 -49 113 -43 18 6 85 -38 74 -48 -3 -4 -21 -7 -38 -7 -41 0 -62 -22
-40 -40 32 -27 142 14 132 48 -2 10 -6 23 -8 31 -2 7 17 27 43 45 26 17 47 39
47 48 1 27 -10 48 -22 41 -5 -3 -7 -1 -4 4 4 6 -4 35 -17 64 -14 29 -22 57
-18 63 4 6 8 3 10 -9 5 -25 34 -53 50 -47 6 2 19 19 28 38 20 42 12 53 -43 61
-34 4 -43 2 -57 -18 -23 -34 -20 -65 14 -126 17 -30 28 -59 24 -65 -4 -7 -10
-5 -16 6 -5 9 -31 28 -59 41 -49 25 -59 38 -38 50 10 7 26 42 27 59 0 5 7 13
16 18 11 6 14 17 11 34 -3 13 -7 35 -10 48 -4 19 -14 25 -52 33 -27 6 -56 14
-66 18 -14 6 -20 2 -24 -14z m60 -16 c15 -8 25 -10 22 -5 -10 16 8 11 34 -9
19 -15 22 -23 16 -49 -3 -18 -11 -30 -16 -26 -5 3 -9 -5 -9 -17 0 -18 -2 -19
-15 -9 -9 8 -15 9 -15 2 0 -6 4 -13 10 -17 10 -6 2 -36 -13 -46 -19 -13 2 -38
53 -64 28 -14 53 -32 57 -40 8 -22 32 -18 43 8 l9 22 0 -23 c1 -13 -7 -25 -16
-29 -10 -4 -33 -18 -51 -31 -26 -20 -32 -31 -30 -55 2 -25 -3 -34 -28 -49 -22
-13 -38 -16 -54 -10 -21 8 -19 10 23 21 47 11 62 33 31 45 -12 5 -14 15 -9 49
8 52 1 59 -77 82 -31 9 -61 22 -67 29 -11 13 -93 7 -135 -10 -15 -6 -17 -4
-11 6 6 10 4 12 -8 7 -11 -4 -18 1 -22 14 -9 27 -1 33 23 20 31 -16 60 -13
103 11 41 23 50 38 24 38 -9 0 -29 16 -46 35 -17 19 -42 38 -55 41 -26 7 -32
35 -11 53 11 8 21 2 45 -28 42 -52 61 -57 122 -29 50 23 63 44 35 54 -18 7
-20 24 -2 24 6 0 25 -7 40 -15z m198 -134 c-10 -17 -15 -19 -31 -11 -24 13
-26 40 -4 40 11 0 14 5 10 18 -6 14 -3 13 14 -4 18 -18 20 -25 11 -43z m-67
-47 c3 -8 2 -12 -4 -9 -6 3 -10 10 -10 16 0 14 7 11 14 -7z m-110 -110 c11 -4
14 -14 10 -33 -9 -34 -9 -34 -34 -21 -14 8 -25 8 -29 2 -7 -11 -91 23 -91 38
0 14 22 12 44 -5 17 -13 22 -12 44 5 27 22 32 23 56 14z"/>
<path d="M2060 2300 c-9 -6 -10 -10 -3 -10 6 0 15 5 18 10 8 12 4 12 -15 0z"/>
<path d="M860 2386 c0 -7 5 -17 11 -23 14 -14 7 -85 -10 -91 -10 -3 -12 3 -6
27 7 31 6 31 -34 31 -40 0 -40 -1 -34 -30 4 -20 2 -30 -7 -30 -14 0 -6 -46 13
-68 15 -19 9 -122 -9 -139 -8 -8 -14 -32 -14 -52 0 -35 3 -39 31 -45 17 -3 71
-6 119 -6 48 0 102 3 119 6 27 6 31 11 31 38 0 17 -6 41 -14 52 -8 11 -17 41
-21 68 -6 39 -3 55 16 93 20 40 21 46 7 54 -10 5 -14 17 -10 34 4 23 2 25 -33
25 -36 0 -37 -1 -31 -30 4 -23 2 -30 -11 -30 -14 0 -15 9 -10 64 l6 64 -54 0
c-36 0 -55 -5 -55 -12z m75 -16 c7 0 15 6 18 13 5 14 -3 -82 -8 -100 -3 -7
-16 -13 -30 -13 -23 0 -25 3 -25 45 0 41 20 86 28 64 2 -5 10 -9 17 -9z m-99
-71 c8 -14 -11 -33 -25 -25 -11 7 -4 36 9 36 5 0 12 -5 16 -11z m189 -19 c-5
-8 -11 -8 -17 -2 -6 6 -7 16 -3 22 5 8 11 8 17 2 6 -6 7 -16 3 -22z m-115 -35
c0 6 9 11 19 11 11 0 17 -4 15 -8 -3 -4 15 -8 40 -8 25 0 48 -4 51 -10 4 -6
-38 -10 -120 -10 -82 0 -124 4 -120 10 3 6 26 10 51 10 28 0 44 4 44 13 0 8 4
7 10 -3 5 -8 10 -10 10 -5z m105 -44 c-6 -11 -182 -8 -192 3 -4 3 40 6 96 6
62 0 100 -4 96 -9z m-175 -36 c0 -8 5 -15 10 -15 6 0 10 7 10 15 0 12 13 15
55 15 42 0 55 -3 55 -15 0 -8 5 -15 10 -15 6 0 10 7 10 15 0 8 7 15 15 15 10
0 15 -10 15 -34 0 -18 3 -48 6 -65 6 -30 5 -31 -29 -31 -20 0 -48 5 -62 12
-19 9 -28 9 -37 0 -7 -7 -32 -12 -56 -12 -36 0 -43 3 -39 18 3 9 8 38 12 65 3
26 10 47 16 47 5 0 9 -7 9 -15z m50 -160 c0 -38 -11 -42 -79 -29 -26 6 -31 11
-31 35 0 28 1 29 55 29 l55 0 0 -35z m164 9 c4 -15 6 -28 4 -30 -2 -1 -27 -6
-56 -10 l-52 -7 0 37 0 36 49 0 c44 0 49 -2 55 -26z"/>
<path d="M1463 2090 c-40 -24 -46 -46 -39 -141 4 -55 9 -77 23 -87 13 -11 15
-16 5 -19 -7 -3 -26 -16 -41 -29 -16 -13 -36 -24 -45 -24 -21 0 -31 -45 -17
-77 10 -22 9 -29 -9 -48 -45 -48 -1 -185 60 -185 18 0 19 3 10 20 -6 11 -8 24
-5 29 3 5 -1 12 -7 14 -10 4 -9 8 2 17 10 8 11 13 4 16 -7 3 -10 14 -7 24 3
12 0 20 -8 20 -7 0 -9 3 -6 6 15 15 37 -21 37 -60 0 -40 22 -86 41 -86 14 0
11 46 -6 87 -8 20 -14 38 -11 40 2 2 9 -10 16 -26 14 -35 40 -49 40 -22 0 10
-7 24 -15 31 -11 9 -14 22 -9 48 4 23 3 33 -3 29 -6 -4 -13 9 -17 31 -3 21
-16 48 -30 61 -25 23 -25 51 -1 51 7 0 15 -7 19 -15 8 -22 49 -18 102 10 47
25 73 25 103 1 11 -9 9 -12 -14 -16 -16 -3 -30 -11 -33 -19 -3 -8 0 -11 7 -7
10 6 15 -6 12 -26 0 -5 4 -8 10 -8 5 0 7 -4 4 -10 -3 -5 1 -10 9 -10 9 0 16
-7 16 -15 0 -14 -12 -19 -32 -16 -5 0 -8 -3 -8 -9 0 -5 7 -10 15 -10 8 0 15
-4 15 -10 0 -5 -6 -10 -12 -10 -10 0 -10 -2 -2 -8 7 -4 14 -18 17 -32 3 -19 5
-16 6 12 0 20 6 40 11 43 14 8 12 102 -3 145 -9 26 -23 41 -56 57 -65 33 -66
36 -26 76 28 28 35 43 35 74 -1 41 -11 59 -50 86 -32 22 -68 21 -107 -3z m92
-30 c0 -8 8 -22 19 -31 16 -13 17 -19 7 -38 -9 -16 -18 -20 -29 -16 -21 9 -73
27 -89 31 -7 2 -13 13 -13 25 0 18 5 20 28 17 15 -3 35 -9 45 -13 10 -4 17 -3
17 4 0 6 -9 11 -20 11 -11 0 -20 7 -20 16 0 11 8 14 28 12 16 -2 27 -9 27 -18z
m-75 -85 c7 4 14 -1 17 -15 4 -15 8 -18 13 -10 15 25 32 -2 27 -42 -6 -43 -22
-68 -43 -68 -21 0 -17 18 6 30 11 6 20 16 20 22 0 6 -8 4 -18 -5 -22 -20 -66
-23 -59 -4 2 6 0 20 -5 30 -6 12 -5 19 5 23 9 3 12 15 10 32 -3 19 -2 23 5 13
5 -7 15 -10 22 -6z m-45 -245 c17 -33 19 -58 6 -79 -7 -12 -13 -12 -24 -3 -7
7 -17 9 -20 5 -4 -3 -7 1 -7 11 0 9 -8 29 -17 44 -17 26 -17 26 0 13 15 -12
17 -11 17 3 0 9 5 16 11 16 5 0 7 5 4 10 -4 7 -13 6 -26 -1 -19 -10 -20 -9 -9
10 9 17 15 19 30 11 11 -6 27 -24 35 -40z m-55 -70 c0 -5 -4 -10 -10 -10 -5 0
-10 -14 -10 -31 0 -27 -2 -30 -15 -19 -19 16 -19 29 2 52 18 20 33 24 33 8z
m0 -152 c0 -6 -6 -5 -15 2 -8 7 -15 14 -15 16 0 2 7 1 15 -2 8 -4 15 -11 15
-16z"/>
<path d="M2430 1944 c-8 -9 -23 -14 -36 -11 -21 4 -21 1 -18 -76 2 -44 7 -85
12 -91 4 -6 5 -33 2 -60 -4 -43 -7 -47 -19 -33 -8 10 -11 27 -7 43 8 31 -8 54
-39 54 -21 0 -23 -6 -30 -77 l-7 -77 50 -47 49 -48 -4 -118 c-2 -65 -8 -160
-14 -210 -6 -51 -8 -97 -4 -103 8 -12 132 -14 139 -1 3 4 2 54 -2 109 l-7 101
39 3 c39 3 41 4 58 58 28 90 25 104 -38 170 l-56 59 0 85 c0 47 3 89 6 95 4 5
8 45 10 89 3 74 2 79 -16 74 -10 -2 -27 3 -37 12 -17 15 -19 15 -31 0z m49
-49 c14 3 21 0 18 -8 -6 -18 -93 -21 -100 -3 -4 11 0 13 19 10 15 -3 24 0 24
8 0 10 2 10 8 1 4 -7 18 -11 31 -8z m21 -50 c0 -5 -25 -11 -55 -13 -45 -2 -55
0 -55 13 0 13 10 15 55 13 30 -2 55 -7 55 -13z m-10 -35 c0 -5 -22 -10 -50
-10 -27 0 -50 5 -50 10 0 6 23 10 50 10 28 0 50 -4 50 -10z m-17 -27 c-13 -2
-35 -2 -50 0 -16 2 -5 4 22 4 28 0 40 -2 28 -4z m7 -99 l0 -85 -31 18 c-46 27
-50 36 -43 97 7 56 7 56 40 56 l34 0 0 -86z m-135 66 c3 -5 1 -10 -4 -10 -6 0
-11 -7 -11 -16 0 -8 -4 -12 -10 -9 -15 9 -12 45 4 45 8 0 18 -4 21 -10z m2
-52 c-3 -8 -6 -5 -6 6 -1 11 2 17 5 13 3 -3 4 -12 1 -19z m16 -57 c-4 -12 -3
-13 4 -3 8 10 24 4 71 -29 34 -24 60 -45 57 -47 -2 -2 -16 5 -31 17 -15 11
-32 21 -38 21 -6 0 -5 -4 3 -9 9 -6 12 -19 8 -40 -4 -16 -2 -33 3 -36 6 -4 10
8 10 25 0 21 4 30 13 27 7 -2 12 -21 12 -44 l1 -41 -74 51 c-90 62 -106 83
-97 131 l7 35 28 -21 c18 -13 26 -27 23 -37z m182 -111 c17 -19 17 -21 0 -47
-17 -25 -19 -26 -26 -8 -4 11 -5 31 -2 45 4 20 2 22 -6 10 -6 -8 -11 -10 -11
-4 0 28 21 30 45 4z m-98 -46 l33 -25 0 -150 0 -150 -47 3 -46 3 2 130 c2 132
9 215 19 215 3 0 20 -11 39 -26z m81 -34 c4 0 13 5 20 12 8 8 10 5 7 -15 -3
-14 0 -29 6 -33 9 -5 10 6 7 40 -5 45 -5 46 13 30 22 -20 23 -34 8 -87 l-10
-38 -31 46 c-17 25 -38 50 -48 55 -12 7 -16 17 -13 31 5 19 7 18 19 -10 7 -17
17 -31 22 -31z m12 -54 c0 -6 -9 -24 -20 -41 l-20 -30 0 59 c0 58 0 59 20 41
11 -10 20 -23 20 -29z m24 -70 c-8 -20 -36 -18 -41 4 -4 12 -3 13 5 1 8 -11
11 -9 17 9 4 14 11 18 16 13 5 -5 7 -17 3 -27z m-79 -186 c4 -6 -17 -10 -55
-10 -38 0 -59 4 -55 10 3 6 28 10 55 10 27 0 52 -4 55 -10z m15 -30 c0 -6 -28
-10 -65 -10 -37 0 -65 4 -65 10 0 6 28 10 65 10 37 0 65 -4 65 -10z"/>
<path d="M2320 1651 c0 -41 9 -61 28 -61 13 0 13 2 -3 13 -12 10 -16 22 -13
41 3 14 1 29 -3 32 -5 3 -9 -8 -9 -25z"/>
<path d="M2382 1599 c-3 -32 12 -59 32 -59 6 0 3 5 -7 11 -14 8 -16 18 -11 45
3 19 2 34 -3 34 -5 0 -10 -14 -11 -31z"/>
<path d="M534 1899 c-3 -6 -17 -9 -31 -6 -21 4 -24 2 -18 -17 4 -11 7 -49 7
-83 0 -35 4 -63 9 -63 5 0 9 -40 9 -90 l0 -89 -60 -59 c-66 -64 -69 -76 -45
-156 20 -64 31 -76 71 -76 l34 0 0 -69 c0 -39 -5 -73 -11 -76 -5 -4 -9 -14 -7
-23 2 -13 16 -15 71 -13 42 1 67 -2 67 -8 0 -7 -26 -11 -65 -11 -37 0 -65 -4
-65 -10 0 -6 30 -10 71 -10 l72 0 -6 58 c-4 31 -10 131 -13 222 l-7 165 47 38
46 38 0 65 c0 36 -4 64 -10 64 -5 0 -10 -4 -10 -10 0 -5 -4 -10 -10 -10 -5 0
-10 7 -10 15 0 8 -5 15 -11 15 -5 0 -7 5 -3 11 3 6 15 9 25 6 11 -3 19 -1 19
5 0 5 -12 8 -27 6 -26 -3 -28 -7 -33 -52 -3 -30 -11 -51 -19 -54 -12 -4 -13 9
-7 74 5 44 9 99 10 124 0 25 5 51 10 59 7 11 2 13 -26 9 -26 -3 -34 0 -31 9 6
16 -33 18 -43 2z m49 -42 c4 3 7 0 7 -8 0 -12 2 -11 11 1 9 13 10 13 6 0 -2
-10 -19 -16 -51 -18 -36 -2 -47 0 -43 10 2 7 11 12 21 10 9 -2 16 2 16 9 0 8
3 9 13 0 8 -6 17 -8 20 -4z m37 -52 c0 -12 -13 -15 -60 -15 -47 0 -60 3 -60
15 0 12 13 15 60 15 47 0 60 -3 60 -15z m-10 -35 c0 -5 -22 -10 -50 -10 -27 0
-50 5 -50 10 0 6 23 10 50 10 28 0 50 -4 50 -10z m-27 -27 c-13 -2 -35 -2 -50
0 -16 2 -5 4 22 4 28 0 40 -2 28 -4z m15 -75 c3 -54 1 -57 -31 -82 -19 -14
-37 -26 -40 -26 -9 0 -9 155 0 164 4 4 21 6 38 4 29 -3 30 -5 33 -60z m59 -10
c-3 -8 -6 -5 -6 6 -1 11 2 17 5 13 3 -3 4 -12 1 -19z m43 -42 c0 -38 -5 -48
-39 -79 -62 -56 -91 -73 -101 -58 -5 9 -10 10 -14 2 -4 -6 -5 -15 -1 -20 3 -6
-5 -15 -17 -22 -18 -9 -21 -9 -11 1 8 9 9 20 2 37 -5 14 -7 29 -4 34 4 5 -1 6
-9 3 -14 -5 -14 -35 -1 -80 2 -7 -8 -22 -22 -35 -14 -13 -32 -37 -41 -54 l-15
-30 -13 35 c-20 55 -17 67 28 116 53 58 195 158 222 157 12 -1 15 1 8 4 -10 4
-10 8 -1 19 20 24 29 15 29 -30z m-87 -328 l6 -168 -50 0 -49 0 0 150 0 149
37 26 c21 13 40 21 44 17 4 -4 9 -82 12 -174z m-103 53 c0 -46 -3 -59 -15 -57
-8 1 -18 6 -22 11 -4 4 -2 5 5 1 16 -9 15 3 -2 34 -12 21 -12 27 3 47 25 35
31 28 31 -36z m-47 -51 c3 -14 1 -20 -6 -17 -7 2 -14 14 -15 26 -4 28 13 20
21 -9z m162 -190 c4 -6 -17 -10 -54 -10 -34 0 -61 4 -61 10 0 6 24 10 54 10
30 0 58 -4 61 -10z"/>
<path d="M640 1595 c0 -7 9 -15 20 -18 12 -3 20 0 20 8 0 7 -9 15 -20 18 -12
3 -20 0 -20 -8z"/>
<path d="M608 1560 c2 -16 6 -30 8 -30 2 0 4 14 4 30 0 17 -4 30 -8 30 -5 0
-7 -13 -4 -30z"/>
<path d="M558 1555 c-8 -8 3 -54 14 -61 6 -4 17 1 26 10 16 16 16 17 0 10 -14
-5 -18 -1 -18 20 0 24 -10 33 -22 21z"/>
<path d="M640 1549 c0 -5 5 -7 10 -4 6 3 10 8 10 11 0 2 -4 4 -10 4 -5 0 -10
-5 -10 -11z"/>
<path d="M447 1463 c-12 -14 -14 -27 -8 -53 7 -28 10 -31 16 -17 4 9 4 28 1
42 -6 25 8 36 17 13 3 -7 6 -3 6 10 1 26 -10 28 -32 5z"/>
<path d="M764 1883 c-27 -32 -20 -60 16 -68 16 -3 36 -18 46 -33 9 -15 25 -34
36 -43 20 -15 19 -16 -11 -29 -17 -7 -42 -10 -56 -6 -14 3 -36 9 -49 12 -23 6
-24 4 -21 -25 6 -47 29 -66 63 -52 42 16 113 15 154 -3 21 -9 44 -16 53 -16
23 0 18 -14 -11 -27 -22 -10 -30 -9 -51 4 -24 16 -26 16 -39 -2 -12 -16 -12
-21 1 -35 18 -20 87 -42 107 -35 15 6 84 -40 71 -48 -4 -3 -25 -8 -46 -12 -48
-9 -54 -20 -23 -40 23 -15 28 -15 70 4 49 21 66 45 47 64 -18 18 -14 24 39 58
30 20 50 40 50 51 0 10 -13 45 -30 78 -16 33 -30 67 -29 77 0 14 2 15 6 3 9
-23 42 -52 53 -45 15 9 42 65 38 77 -2 6 -11 13 -19 14 -7 2 -27 7 -42 10 -35
8 -67 -18 -67 -55 0 -14 14 -55 30 -90 17 -35 28 -66 26 -69 -3 -2 -18 6 -34
19 -16 13 -44 32 -61 41 -30 16 -42 38 -21 38 16 0 54 93 51 125 -3 45 -11 66
-22 59 -6 -3 -15 -1 -22 4 -7 5 -30 12 -52 15 -34 5 -44 3 -64 -18 -20 -22
-21 -27 -10 -42 12 -15 12 -16 -2 -11 -9 4 -26 0 -37 -8 -18 -13 -24 -10 -68
36 l-49 49 -21 -26z m272 2 c32 -5 64 -24 64 -38 0 -26 -13 -56 -21 -51 -5 3
-9 -5 -9 -16 0 -16 -4 -20 -16 -16 -13 5 -14 3 -6 -7 14 -16 10 -46 -7 -57
-20 -11 -8 -24 54 -59 30 -17 55 -36 55 -41 0 -16 30 -12 36 5 3 8 -6 35 -20
60 -15 25 -25 45 -22 45 9 0 56 -86 56 -102 0 -8 -23 -29 -51 -48 -46 -29 -50
-36 -45 -61 4 -22 0 -32 -21 -49 -26 -21 -54 -26 -67 -12 -4 4 9 12 31 18 39
11 60 44 28 44 -15 0 -16 7 -11 43 3 23 2 48 -2 54 -4 7 -34 22 -67 33 -32 11
-66 27 -76 36 -11 10 -19 12 -24 5 -3 -6 -16 -9 -28 -6 -12 3 -42 -1 -66 -10
-35 -12 -41 -12 -32 -1 9 11 8 14 -6 12 -12 -1 -19 7 -21 23 -3 20 -1 22 15
16 43 -19 82 -17 119 6 24 14 32 25 24 27 -8 3 -31 22 -52 43 -21 21 -47 41
-58 44 -21 7 -27 39 -9 51 6 3 30 -13 54 -36 38 -37 47 -41 74 -35 73 16 116
56 76 71 -24 10 -17 27 8 19 12 -3 32 -8 43 -10z m187 -135 c-6 -23 -8 -24
-34 -10 -23 13 -26 42 -4 34 10 -4 15 0 15 12 1 18 1 18 14 1 8 -10 12 -27 9
-37z m-277 -177 c25 -16 27 -16 36 0 6 11 22 17 45 17 33 0 35 -1 28 -27 -9
-36 -10 -37 -33 -24 -12 6 -22 7 -29 0 -12 -12 -93 21 -93 39 0 17 16 15 46
-5z"/>
<path d="M980 1810 c-9 -6 -10 -10 -3 -10 6 0 15 5 18 10 8 12 4 12 -15 0z"/>
<path d="M926 1901 c-4 -7 -5 -15 -2 -18 9 -9 19 4 14 18 -4 11 -6 11 -12 0z"/>
<path d="M2037 1884 c-3 -3 -3 -32 0 -65 4 -43 2 -59 -7 -59 -8 0 -10 8 -6 25
6 24 4 25 -35 25 -39 0 -41 -1 -35 -25 4 -14 2 -25 -4 -25 -15 0 -12 -31 5
-64 20 -38 20 -130 0 -146 -9 -7 -15 -29 -15 -55 0 -41 1 -43 38 -49 49 -8
166 -7 217 2 39 7 40 8 36 47 -1 22 -9 48 -17 59 -21 30 -18 109 6 151 24 43
25 55 5 55 -11 0 -14 7 -9 25 6 24 4 25 -35 25 -39 0 -41 -1 -35 -25 4 -17 2
-25 -6 -25 -10 0 -11 16 -7 65 5 53 4 65 -8 65 -8 0 -15 -5 -15 -11 0 -5 -5
-7 -12 -3 -15 9 -54 14 -61 8z m77 -24 c8 6 10 -6 6 -43 -5 -47 -7 -52 -31
-55 -25 -3 -27 0 -31 42 -2 32 1 46 9 46 7 0 13 5 13 12 0 9 3 9 12 0 7 -7 16
-8 22 -2z m-109 -80 c3 -6 -1 -13 -10 -16 -19 -8 -30 0 -20 15 8 14 22 14 30
1z m193 -8 c2 -7 -3 -12 -12 -12 -9 0 -16 7 -16 16 0 17 22 14 28 -4z m12 -62
c0 -6 -48 -10 -125 -10 -77 0 -125 4 -125 10 0 6 48 10 125 10 77 0 125 -4
125 -10z m-72 -27 c-27 -2 -69 -2 -95 0 -27 2 -5 3 47 3 52 0 74 -1 48 -3z
m-128 -33 c0 -11 5 -20 10 -20 6 0 10 9 10 20 0 18 7 20 56 20 45 0 55 -3 51
-15 -4 -8 -2 -17 4 -21 6 -3 13 3 16 15 6 23 21 28 28 9 2 -7 5 -36 8 -65 l4
-51 -35 -7 c-20 -4 -39 -2 -45 4 -6 6 -20 11 -32 11 -12 0 -26 -5 -32 -11 -6
-6 -25 -8 -44 -4 -34 6 -34 6 -31 58 2 29 5 58 7 65 7 19 25 14 25 -8z m26
-130 c20 0 24 -5 24 -29 0 -38 -5 -40 -63 -34 -46 5 -47 6 -47 41 0 33 1 34
31 28 17 -3 42 -6 55 -6z m184 -25 c0 -31 -3 -35 -27 -35 -16 0 -38 -3 -50 -6
-21 -6 -23 -3 -23 29 0 33 3 36 33 40 69 8 67 9 67 -28z"/>
<path d="M1485 1710 c-18 -6 -18 -8 5 -22 14 -9 35 -19 47 -23 14 -4 25 -17
29 -33 3 -15 6 -30 7 -34 1 -4 8 -4 16 1 11 7 10 15 -4 44 -11 23 -14 44 -9
59 6 20 5 21 -10 9 -9 -7 -16 -9 -16 -3 0 11 -36 13 -65 2z"/>
<path d="M1530 1620 c5 -10 10 -33 10 -51 0 -18 7 -41 17 -51 15 -17 15 -18
-13 -18 -16 0 -38 -8 -49 -17 l-20 -16 20 8 c11 4 37 11 59 15 45 9 90 40 95
66 3 16 0 15 -16 -5 -28 -35 -56 -22 -71 33 -6 24 -18 46 -27 50 -13 4 -14 2
-5 -14z"/>
<path d="M1052 1324 c3 -3 57 -29 119 -59 62 -30 115 -59 118 -64 10 -16 57
-30 80 -24 20 5 19 8 -15 28 -21 13 -43 21 -49 19 -6 -3 -64 20 -129 51 -112
52 -137 62 -124 49z m283 -124 c3 -5 -1 -10 -10 -10 -9 0 -13 5 -10 10 3 6 8
10 10 10 2 0 7 -4 10 -10z"/>
<path d="M1515 1298 c11 -6 23 -16 27 -22 5 -7 8 -7 8 2 0 8 5 10 13 6 9 -6 9
-5 0 7 -6 8 -24 15 -40 17 -26 1 -26 1 -8 -10z"/>
<path d="M1789 1301 c37 -10 49 -36 28 -59 -9 -10 -17 -23 -17 -28 1 -16 40
41 40 58 0 19 -29 39 -57 37 -13 -1 -11 -3 6 -8z"/>
<path d="M1720 1290 c-8 -5 -39 -10 -68 -10 -39 0 -61 -6 -79 -20 -25 -19 -27
-20 -47 -3 -20 17 -20 17 -7 0 11 -14 11 -21 3 -29 -9 -9 -12 -9 -12 0 0 18
-23 10 -35 -13 -6 -11 -26 -26 -45 -33 -32 -11 -32 -12 -5 -7 17 3 38 6 48 6
9 0 17 4 17 8 0 5 9 11 20 14 15 4 20 0 20 -13 0 -11 5 -22 10 -25 7 -4 9 2 5
18 -4 14 -2 28 4 31 10 7 16 -8 24 -64 3 -15 5 -9 6 15 0 23 -4 46 -11 53 -9
9 -7 16 7 32 14 15 31 20 74 20 48 1 142 27 101 29 -8 0 -22 -4 -30 -9z"/>
<path d="M1481 1264 c0 -11 3 -14 6 -6 3 7 2 16 -1 19 -3 4 -6 -2 -5 -13z"/>
<path d="M1768 1273 c6 -2 18 -2 25 0 6 3 1 5 -13 5 -14 0 -19 -2 -12 -5z"/>
<path d="M1613 1223 c9 -2 25 -2 35 0 9 3 1 5 -18 5 -19 0 -27 -2 -17 -5z"/>
<path d="M1805 1191 c-3 -6 -14 -11 -24 -11 -10 0 -26 -11 -35 -25 -11 -17
-26 -25 -45 -25 -17 0 -42 11 -59 25 -42 36 -50 31 -9 -5 44 -38 88 -40 115
-5 11 14 29 25 40 25 21 0 39 17 29 26 -3 3 -8 1 -12 -5z"/>
<path d="M1688 1183 c7 -3 16 -2 19 1 4 3 -2 6 -13 5 -11 0 -14 -3 -6 -6z"/>
<path d="M849 2729 c-13 -11 -19 -18 -12 -14 15 7 67 -90 59 -111 -5 -12 11
-11 36 3 4 2 -4 22 -19 44 -14 21 -26 53 -27 69 -1 36 -6 37 -37 9z"/>
<path d="M2166 2707 c3 -8 -11 -37 -30 -65 -37 -55 -36 -57 21 -86 31 -15 33
-15 43 4 10 18 8 19 -19 14 -16 -3 -31 -1 -35 5 -9 14 41 111 57 111 6 0 3 7
-7 15 -25 19 -37 19 -30 2z"/>
<path d="M746 2673 c-25 -13 -27 -17 -13 -25 23 -12 70 -95 62 -108 -9 -14 8
-12 30 4 19 14 19 15 -4 33 l-24 20 22 29 c41 55 -5 85 -73 47z m54 -8 c7 -8
9 -23 5 -32 -6 -16 -8 -16 -26 6 -18 22 -18 41 0 41 5 0 14 -7 21 -15z"/>
<path d="M2280 2634 c0 -22 -52 -94 -69 -94 -11 0 -10 -5 4 -20 18 -20 41 -28
30 -10 -9 14 53 100 71 100 19 0 10 16 -17 30 -15 9 -19 7 -19 -6z"/>
<path d="M662 2614 c-33 -23 -29 -61 7 -69 15 -3 32 -5 37 -4 27 5 44 -3 44
-20 0 -23 -19 -32 -42 -19 -19 9 -23 1 -9 -20 13 -22 71 12 71 41 0 34 -19 47
-66 47 -24 0 -45 4 -48 9 -9 14 20 32 40 24 17 -6 17 -5 5 10 -16 20 -12 20
-39 1z"/>
<path d="M2346 2577 c-3 -14 -24 -41 -46 -60 -38 -35 -39 -37 -19 -47 16 -9
20 -8 17 2 -3 14 38 78 51 78 4 0 4 -28 -1 -62 -4 -33 -6 -64 -3 -66 3 -3 28
19 55 48 33 36 46 56 38 61 -7 5 -17 -3 -25 -19 -8 -15 -21 -34 -29 -42 -14
-13 -15 -8 -9 45 6 48 4 63 -8 73 -12 10 -16 8 -21 -11z"/>
<path d="M580 2545 c-10 -12 -10 -15 2 -15 14 0 58 -40 58 -52 0 -3 -26 1 -57
8 -42 10 -61 10 -70 2 -11 -9 -9 -13 9 -22 12 -6 37 -30 54 -53 27 -36 34 -40
44 -28 10 12 9 15 -3 15 -14 0 -72 59 -64 66 1 2 29 -4 61 -12 32 -8 61 -13
64 -9 3 3 -8 20 -25 38 -16 17 -37 42 -45 55 -13 20 -17 21 -28 7z"/>
<path d="M2445 2424 c-27 -13 -56 -24 -62 -24 -16 0 -17 -16 -2 -25 6 -4 17 1
24 11 13 18 15 18 37 -4 22 -23 22 -24 4 -37 -16 -12 -17 -17 -6 -30 16 -19
30 -19 30 0 0 9 11 38 25 65 40 79 34 85 -50 44z"/>
<path d="M430 2393 c-26 -33 -20 -68 16 -100 60 -54 139 0 113 77 -20 57 -92
70 -129 23z m94 -18 c41 -38 30 -85 -20 -85 -30 0 -74 44 -74 74 0 42 53 49
94 11z"/>
<path d="M341 2274 c-25 -32 -25 -37 -6 -74 39 -76 135 -63 135 18 0 18 -4 32
-8 32 -5 0 -7 -13 -4 -29 6 -41 -25 -57 -72 -37 -61 25 -58 96 3 96 20 0 23 2
11 10 -24 15 -37 12 -59 -16z"/>
<path d="M2590 2274 c-25 -8 -57 -15 -72 -16 -24 -1 -26 -3 -16 -21 9 -18 11
-19 20 -4 12 23 35 21 48 -2 13 -25 3 -52 -17 -44 -13 5 -12 1 3 -22 17 -27
18 -27 26 -6 4 12 21 42 38 66 29 43 37 66 23 64 -5 0 -28 -7 -53 -15z m18
-24 c-13 -21 -29 -22 -35 -3 -4 10 11 17 40 22 4 0 2 -8 -5 -19z"/>
<path d="M2628 2171 c-34 -27 -43 -66 -23 -97 8 -13 23 -24 32 -24 14 0 13 3
-5 16 -47 33 -7 97 58 92 28 -2 36 -8 38 -26 2 -13 -2 -30 -8 -38 -13 -15 -3
-19 18 -6 15 10 6 66 -13 82 -26 22 -70 22 -97 1z"/>
<path d="M242 2100 c-17 -28 -15 -48 8 -60 16 -8 28 -6 59 12 29 16 43 20 51
12 15 -15 3 -42 -22 -50 -16 -5 -17 -8 -7 -14 15 -10 49 24 49 50 0 39 -58 54
-91 24 -19 -17 -49 -13 -49 7 0 6 9 13 20 16 22 6 28 23 7 23 -7 0 -18 -9 -25
-20z"/>
<path d="M202 2004 c-15 -31 -15 -37 -1 -29 14 9 100 -23 116 -43 11 -13 13
-13 19 4 4 10 9 23 12 28 3 5 -1 6 -9 4 -18 -6 -100 28 -115 47 -9 12 -13 10
-22 -11z"/>
<path d="M2630 2024 c0 -5 5 -16 10 -24 8 -12 12 -12 18 -2 5 7 16 10 24 7 29
-11 30 -65 2 -65 -16 0 -18 -9 -5 -28 6 -11 20 -1 57 38 27 29 51 56 52 61 2
5 -26 9 -61 9 -36 0 -72 3 -81 6 -9 3 -16 2 -16 -2z m120 -23 c0 -13 -26 -32
-33 -24 -14 13 -6 33 13 33 11 0 20 -4 20 -9z"/>
<path d="M177 1913 c-8 -10 -18 -29 -22 -43 -5 -23 -3 -25 31 -27 48 -2 94
-22 94 -39 0 -8 -15 -20 -32 -28 -28 -11 -35 -11 -49 0 -34 30 -63 12 -71 -42
-4 -32 -4 -32 50 -37 30 -3 60 -11 65 -16 17 -17 27 -13 27 12 0 18 -5 23 -27
22 -40 0 -38 20 4 37 33 12 40 21 51 61 6 26 12 56 12 67 0 26 -34 44 -59 31
-14 -8 -20 -7 -25 4 -7 20 -29 19 -49 -2z m49 -30 c8 -11 13 -13 14 -5 0 17
47 15 53 -3 9 -23 -12 -29 -57 -15 -22 7 -47 14 -54 16 -7 2 -10 8 -7 14 10
16 36 12 51 -7z m-42 -119 c9 -3 16 -15 16 -26 0 -17 -4 -19 -27 -13 -36 9
-38 12 -23 30 14 17 13 17 34 9z"/>
<path d="M2814 1911 c-14 -14 -111 -40 -120 -33 -4 4 -4 -9 0 -28 9 -49 50
-84 90 -76 34 7 56 30 56 59 0 17 -3 16 -21 -7 -26 -33 -83 -37 -99 -7 -15 29
-15 29 46 47 47 13 58 14 65 3 7 -11 9 -9 9 6 0 28 -14 47 -26 36z"/>
<path d="M2853 1749 c-6 -6 -36 -11 -67 -12 l-56 -2 1 -35 c1 -56 10 -68 45
-61 3 0 -4 9 -17 19 -28 24 -20 52 16 52 22 0 25 -4 20 -20 -7 -21 1 -25 24
-11 9 6 10 11 2 15 -16 10 -4 26 20 26 25 0 35 -25 19 -45 -10 -12 -9 -15 4
-15 12 0 16 9 15 33 -1 46 -12 70 -26 56z"/>
<path d="M160 1653 c-56 -21 -68 -87 -24 -122 58 -45 135 -6 125 64 -5 40 -62
73 -101 58z m65 -35 c27 -12 34 -45 13 -66 -17 -17 -78 -15 -100 5 -51 46 15
94 87 61z"/>
<path d="M2740 1602 c0 -17 7 -19 53 -15 l52 4 -47 -22 c-27 -12 -48 -25 -48
-29 0 -4 20 -14 45 -21 25 -7 45 -17 45 -21 0 -13 -78 -9 -83 5 -3 6 -6 -4 -6
-23 0 -24 2 -30 8 -21 6 10 26 12 75 9 36 -2 66 -1 66 2 -1 16 -22 33 -65 49
l-49 19 52 22 c34 15 52 28 52 40 0 15 -6 16 -56 6 -41 -7 -61 -7 -75 2 -16
10 -19 9 -19 -6z"/>
<path d="M182 1428 c-5 -7 -13 -23 -16 -35 -8 -24 -30 -31 -41 -12 -4 5 1 19
12 31 18 20 18 20 -2 17 -23 -5 -32 -43 -15 -65 21 -24 49 -16 71 21 12 19 27
35 35 35 23 0 28 -29 9 -50 -17 -19 -17 -20 3 -20 21 0 28 19 22 60 -4 30 -58
42 -78 18z"/>
<path d="M2740 1409 c0 -23 3 -24 54 -21 30 2 64 -1 75 -7 19 -11 21 -9 21 21
0 23 -3 29 -9 19 -7 -10 -22 -12 -60 -7 -28 4 -58 9 -66 12 -11 4 -15 -1 -15
-17z"/>
<path d="M2737 1350 c-3 -12 -1 -20 6 -19 31 4 38 -2 35 -28 -2 -24 -7 -28
-30 -26 -24 1 -28 -2 -28 -23 0 -21 3 -23 19 -14 11 5 28 10 38 10 28 0 93 20
93 29 0 4 -19 18 -42 31 -24 12 -53 31 -64 42 -21 19 -21 19 -27 -2z m77 -46
c23 -9 20 -24 -4 -24 -11 0 -20 7 -20 15 0 17 2 18 24 9z"/>
<path d="M191 1295 c-62 -42 -64 -44 -40 -53 13 -5 45 -12 71 -16 26 -4 50
-11 53 -16 3 -5 -4 -23 -16 -39 -18 -25 -25 -28 -41 -20 -27 15 -48 -6 -47
-45 0 -30 17 -83 18 -59 1 14 106 47 121 38 5 -3 10 3 10 14 0 21 -16 37 -22
22 -1 -4 -13 -12 -25 -15 -31 -10 -30 11 3 45 22 23 25 32 17 56 -5 15 -16 28
-24 29 -38 3 -40 5 -37 32 2 19 8 27 21 26 12 -1 17 5 17 22 0 13 -3 24 -7 23
-5 -1 -37 -21 -72 -44z m29 -41 c0 -11 -5 -14 -16 -10 -9 3 -21 6 -27 6 -16 0
14 20 31 20 6 0 12 -7 12 -16z m13 -138 c7 -19 -1 -26 -30 -26 -22 0 -31 19
-16 33 11 12 41 7 46 -7z"/>
<path d="M2707 1149 c-26 -15 -38 -54 -27 -84 5 -14 14 -25 19 -25 5 0 5 12
-2 29 -8 23 -8 33 2 45 25 29 101 16 115 -19 9 -23 -11 -55 -34 -55 -26 0 -26
-16 -1 -23 14 -3 24 4 37 28 15 29 16 37 4 65 -18 44 -72 63 -113 39z"/>
<path d="M295 1050 c-3 -5 3 -10 14 -10 11 0 25 -9 31 -20 8 -15 6 -21 -9 -30
-28 -14 -44 -12 -37 5 3 9 0 15 -8 15 -20 0 -27 -12 -14 -27 9 -11 9 -17 -3
-24 -8 -5 -19 -9 -25 -9 -18 0 -26 31 -13 46 9 11 9 14 0 14 -6 0 -14 -7 -18
-16 -8 -20 26 -92 36 -76 10 16 99 54 111 47 15 -9 12 20 -7 60 -16 34 -45 46
-58 25z"/>
<path d="M2642 1004 c-43 -30 -18 -122 36 -125 60 -4 92 19 92 66 0 62 -75 97
-128 59z m99 -30 c57 -52 -23 -102 -85 -53 -47 37 -27 85 33 75 18 -3 42 -13
52 -22z"/>
<path d="M390 909 c0 -18 -97 -72 -105 -59 -4 6 -3 19 0 30 5 15 3 18 -9 14
-9 -3 -16 -11 -16 -17 0 -8 43 -90 56 -105 1 -2 11 1 21 7 15 9 16 10 2 11 -9
0 -22 6 -28 14 -9 11 -2 19 36 42 26 15 53 27 60 27 18 0 16 22 -2 37 -12 10
-15 10 -15 -1z"/>
<path d="M2593 909 c-17 -17 -16 -29 1 -29 20 0 27 -25 12 -46 -9 -11 -21 -15
-35 -11 -15 3 -24 -1 -31 -14 -10 -17 -7 -19 23 -19 19 0 55 -3 81 -6 28 -4
46 -3 46 3 0 6 -17 30 -39 54 -21 25 -40 52 -42 62 -3 15 -6 16 -16 6z m55
-81 c19 -19 14 -26 -12 -21 -16 3 -23 10 -19 19 6 17 15 18 31 2z"/>
<path d="M431 816 c-12 -14 -11 -16 7 -16 11 0 26 -7 33 -16 11 -14 9 -19 -11
-34 -26 -20 -45 -17 -36 6 5 12 2 12 -16 3 -19 -10 -20 -12 -4 -21 13 -8 15
-13 5 -24 -25 -30 -56 -5 -42 34 6 15 5 15 -10 3 -16 -12 -16 -15 1 -43 20
-35 52 -66 52 -50 0 5 31 16 70 23 58 10 68 15 58 26 -6 8 -14 10 -17 5 -11
-16 -50 -20 -61 -7 -8 10 -4 16 20 26 16 8 30 17 30 20 0 3 -15 23 -33 44 -29
34 -34 36 -46 21z m9 -126 c-20 -13 -33 -13 -25 0 3 6 14 10 23 10 15 0 15 -2
2 -10z"/>
<path d="M2486 748 c-19 -26 -21 -64 -4 -74 7 -4 8 -3 4 5 -12 19 2 59 23 66
41 13 98 -38 89 -81 -2 -13 -14 -21 -38 -24 -32 -5 -33 -6 -15 -17 16 -10 24
-7 48 19 22 23 27 36 23 56 -15 63 -99 95 -130 50z"/>
<path d="M558 657 c49 -15 54 -52 13 -89 -17 -15 -40 -28 -51 -28 -27 0 -44
34 -30 60 12 23 -2 27 -19 6 -26 -32 33 -89 82 -79 33 7 67 47 67 79 0 33 -34
64 -67 63 -28 -1 -28 -1 5 -12z"/>
<path d="M2397 642 c-18 -20 -23 -37 -7 -27 12 7 102 -74 94 -86 -3 -5 -14 -9
-25 -9 -10 0 -19 -4 -19 -10 0 -21 27 -8 64 29 29 30 37 44 31 58 -8 17 -8 17
-13 -2 -8 -39 -21 -40 -58 -4 -20 18 -39 42 -43 52 -7 17 -8 17 -24 -1z"/>
<path d="M2295 546 c-38 -33 -39 -35 -22 -52 16 -18 17 -17 17 9 0 35 24 45
50 22 21 -19 17 -40 -6 -31 -17 7 -18 -6 -2 -22 14 -14 32 -16 23 -3 -11 19
13 20 29 2 15 -16 15 -20 1 -31 -8 -7 -22 -10 -30 -6 -8 3 -15 1 -15 -3 0 -23
30 -16 66 15 24 20 33 33 24 34 -22 0 -94 76 -86 89 14 21 -9 10 -49 -23z"/>
<path d="M680 517 c0 -40 -3 -46 -22 -49 -33 -4 -34 -36 -2 -69 30 -32 44 -36
44 -15 0 7 18 33 40 58 29 34 36 48 28 56 -13 13 -29 16 -26 5 4 -15 -23 -54
-33 -47 -5 3 -9 26 -7 51 2 30 -1 47 -9 50 -9 3 -13 -9 -13 -40z m23 -63 c7
-8 -22 -54 -34 -54 -16 0 -22 30 -9 45 13 16 32 19 43 9z"/>
<path d="M2220 485 c-10 -12 -10 -15 2 -15 7 0 22 -13 31 -30 22 -37 16 -38
-29 -4 -19 15 -37 24 -41 21 -3 -4 -1 -25 5 -49 6 -23 9 -44 7 -46 -7 -7 -44
61 -39 70 9 14 -6 9 -53 -19 -26 -15 -41 -29 -35 -31 20 -6 13 -39 -10 -45
-26 -7 -38 -1 -38 19 0 17 -5 17 -31 3 -19 -10 -18 -12 18 -38 21 -16 47 -38
57 -50 32 -36 39 -26 34 48 -5 64 2 91 23 91 13 0 71 -99 64 -110 -10 -16 11
-12 25 5 10 12 10 25 1 61 -7 26 -10 49 -7 51 3 3 23 -9 44 -27 36 -29 42 -30
64 -19 18 11 20 14 6 17 -18 4 -68 74 -68 97 0 19 -14 19 -30 0z m-130 -175
c0 -23 -13 -26 -29 -6 -9 11 -9 15 1 19 23 10 28 7 28 -13z"/>
<path d="M790 451 c-10 -19 -8 -20 20 -15 37 8 52 -18 26 -44 -15 -15 -18 -15
-26 -2 -9 13 -11 13 -20 0 -14 -22 -12 -30 5 -24 19 8 20 -19 2 -35 -15 -12
-37 3 -37 27 0 7 -4 10 -10 7 -20 -12 -9 -32 30 -54 34 -19 40 -20 40 -6 0 25
49 95 66 95 24 0 4 21 -45 48 -40 23 -40 23 -51 3z"/>
<path d="M942 373 c1 -10 -8 -39 -20 -65 -15 -35 -25 -46 -36 -42 -9 3 -16 13
-16 21 0 8 -4 11 -10 8 -18 -11 -10 -24 28 -44 60 -30 79 -34 86 -16 4 13 1
15 -14 10 -37 -12 -41 4 -14 58 15 29 31 55 37 58 5 4 1 12 -11 18 -28 15 -31
14 -30 -6z"/>
<path d="M1046 329 c-2 -8 -10 -31 -16 -52 -6 -20 -18 -44 -26 -52 -13 -12
-12 -15 6 -25 17 -9 21 -8 19 2 -4 21 12 78 22 78 5 0 9 -7 9 -16 0 -35 24
-93 40 -97 12 -3 17 2 17 22 0 21 16 65 41 114 2 4 -6 7 -17 7 -13 0 -19 -5
-15 -14 3 -7 -2 -31 -12 -52 l-17 -39 -16 62 c-17 66 -28 85 -35 62z"/>
<path d="M1903 327 c-42 -16 -47 -22 -34 -44 9 -16 10 -16 11 -1 0 15 27 38
44 38 9 0 38 -101 32 -115 -6 -18 7 -19 35 -4 18 9 19 12 6 22 -17 14 -48 102
-39 111 9 9 -20 5 -55 -7z"/>
<path d="M1790 296 c-34 -9 -46 -17 -48 -34 -4 -27 14 -29 21 -2 7 27 44 26
52 -1 4 -12 2 -26 -4 -32 -8 -8 -11 -8 -11 1 0 7 -4 12 -9 12 -5 0 -7 -9 -4
-20 4 -14 11 -19 23 -15 12 4 19 -1 23 -14 3 -11 2 -22 -1 -25 -10 -11 -42 -6
-42 6 0 6 -3 9 -6 5 -4 -3 -4 -13 -1 -21 5 -12 13 -12 47 -4 32 8 40 14 34 27
-21 51 -31 110 -21 120 13 13 6 13 -53 -3z"/>
<path d="M1186 286 c8 -20 -15 -116 -27 -116 -19 0 -8 -18 14 -22 20 -4 23 0
24 34 1 21 9 53 18 70 17 35 18 33 -12 42 -18 6 -22 4 -17 -8z"/>
<path d="M1687 273 c-4 -3 -3 -11 2 -17 11 -13 26 -86 17 -86 -3 0 -24 20 -47
45 -23 25 -45 45 -49 45 -4 0 -3 -27 2 -61 4 -33 5 -65 2 -70 -3 -5 5 -9 17
-9 18 0 20 3 11 12 -7 7 -12 28 -12 47 l0 35 36 -42 c19 -23 44 -42 55 -42 21
0 25 10 9 26 -6 6 -11 36 -13 67 -2 52 -12 69 -30 50z"/>
<path d="M1306 254 c-9 -8 -16 -22 -16 -29 0 -15 38 -55 52 -55 4 0 8 -9 8
-20 0 -24 -17 -26 -42 -3 -17 15 -18 15 -18 0 0 -18 41 -33 65 -23 24 9 18 53
-10 72 -26 17 -33 48 -13 60 6 4 19 -2 29 -14 21 -27 29 -28 29 -3 0 11 -9 21
-22 25 -35 9 -45 7 -62 -10z"/>
<path d="M1498 250 c-28 -22 -18 -60 22 -82 16 -9 30 -24 30 -33 0 -20 -19
-19 -43 2 -19 17 -19 17 -16 -2 3 -15 12 -20 39 -20 32 0 35 3 38 31 3 27 -2
33 -33 48 -24 12 -35 23 -33 34 5 24 37 27 53 5 14 -17 14 -17 15 3 0 29 -43
38 -72 14z"/>
<path d="M1420 241 c9 -18 8 -41 -6 -108 -4 -19 0 -23 19 -23 22 0 23 2 19 66
-3 49 -1 69 9 75 10 6 4 9 -19 9 -29 0 -32 -2 -22 -19z"/>
</g>
</svg>
